<?xml version="1.0" encoding="UTF-8" standalone="no"?>
<!DOCTYPE svg PUBLIC "-//W3C//DTD SVG 1.1//EN"
 "http://www.w3.org/Graphics/SVG/1.1/DTD/svg11.dtd">
<!-- Generated by graphviz version 2.43.0 (0)
 -->
<!-- Title: G Pages: 1 -->
<svg width="186pt" height="198pt"
 viewBox="0.00 0.00 186.28 197.92" xmlns="http://www.w3.org/2000/svg" xmlns:xlink="http://www.w3.org/1999/xlink">
<g id="graph0" class="graph" transform="scale(1 1) rotate(0) translate(4 193.92)">
<title>G</title><style>.edge>path:hover{stroke-width:8}</style>
<polygon fill="white" stroke="transparent" points="-4,4 -4,-193.92 182.28,-193.92 182.28,4 -4,4"/>
<!-- requests -->
<g id="node1" class="node">
<title>requests</title><style>.edge>path:hover{stroke-width:8}</style>
<polygon fill="#bc2fbc" stroke="black" points="68.72,-164.47 68.72,-179.38 48.62,-189.92 20.19,-189.92 0.09,-179.38 0.09,-164.47 20.19,-153.92 48.62,-153.92 68.72,-164.47"/>
<text text-anchor="middle" x="34.41" y="-169.42" font-family="Helvetica,sans-Serif" font-size="10.00" fill="#ffffff">requests</text>
</g>
<!-- macedon_log -->
<g id="node2" class="node">
<title>macedon_log</title><style>.edge>path:hover{stroke-width:8}</style>
<polygon fill="#18dd18" stroke="black" points="178.16,-164.47 178.16,-179.38 151.36,-189.92 113.46,-189.92 86.65,-179.38 86.65,-164.47 113.46,-153.92 151.36,-153.92 178.16,-164.47"/>
<text text-anchor="middle" x="132.41" y="-169.42" font-family="Helvetica,sans-Serif" font-size="10.00" fill="#000000">macedon.log</text>
</g>
<!-- macedon_entrypoint -->
<g id="node4" class="node">
<title>macedon_entrypoint</title><style>.edge>path:hover{stroke-width:8}</style>
<polygon fill="#2db42d" stroke="black" points="140.72,-85.47 140.72,-104.46 114.18,-117.88 76.64,-117.88 50.09,-104.46 50.09,-85.47 76.64,-72.04 114.18,-72.04 140.72,-85.47"/>
<text text-anchor="middle" x="95.41" y="-97.96" font-family="Helvetica,sans-Serif" font-size="10.00" fill="#ffffff">macedon.</text>
<text text-anchor="middle" x="95.41" y="-86.96" font-family="Helvetica,sans-Serif" font-size="10.00" fill="#ffffff">entrypoint</text>
</g>
<!-- macedon_log&#45;&gt;macedon_entrypoint -->
<g id="edge3" class="edge">
<title>macedon_log&#45;&gt;macedon_entrypoint</title><style>.edge>path:hover{stroke-width:8}</style>
<path fill="none" stroke="black" d="M124.01,-153.91C120.12,-146.03 115.36,-136.39 110.86,-127.27"/>
<polygon fill="#18dd18" stroke="black" points="113.86,-125.45 106.3,-118.03 107.59,-128.55 113.86,-125.45"/>
</g>
<!-- macedon -->
<g id="node3" class="node">
<title>macedon</title><style>.edge>path:hover{stroke-width:8}</style>
<polygon fill="#3db83d" stroke="black" points="167.27,-10.54 167.27,-25.46 146.26,-36 116.55,-36 95.54,-25.46 95.54,-10.54 116.55,0 146.26,0 167.27,-10.54"/>
<text text-anchor="middle" x="131.41" y="-15.5" font-family="Helvetica,sans-Serif" font-size="10.00" fill="#000000">macedon</text>
</g>
<!-- macedon&#45;&gt;macedon_log -->
<g id="edge1" class="edge">
<title>macedon&#45;&gt;macedon_log</title><style>.edge>path:hover{stroke-width:8}</style>
<path fill="none" stroke="black" d="M138.89,-36.3C142.88,-46.48 147.38,-59.73 149.41,-72 152.73,-92.14 152.56,-97.76 149.41,-117.92 148.05,-126.61 145.51,-135.82 142.8,-144.08"/>
<polygon fill="#3db83d" stroke="black" points="139.47,-142.99 139.47,-153.59 146.08,-145.3 139.47,-142.99"/>
</g>
<!-- macedon_entrypoint&#45;&gt;macedon -->
<g id="edge2" class="edge">
<title>macedon_entrypoint&#45;&gt;macedon</title><style>.edge>path:hover{stroke-width:8}</style>
<path fill="none" stroke="black" d="M106.01,-71.88C109.99,-63.59 114.55,-54.09 118.7,-45.45"/>
<polygon fill="#2db42d" stroke="black" points="121.98,-46.7 123.16,-36.17 115.67,-43.67 121.98,-46.7"/>
</g>
</g>
</svg>
