<?xml version="1.0" encoding="UTF-8" standalone="no"?>
<!DOCTYPE svg PUBLIC "-//W3C//DTD SVG 1.1//EN"
 "http://www.w3.org/Graphics/SVG/1.1/DTD/svg11.dtd">
<!-- Generated by graphviz version 2.43.0 (0)
 -->
<!-- Title: G Pages: 1 -->
<svg width="454pt" height="260pt"
 viewBox="0.00 0.00 453.50 260.00" xmlns="http://www.w3.org/2000/svg" xmlns:xlink="http://www.w3.org/1999/xlink">
<g id="graph0" class="graph" transform="scale(1 1) rotate(0) translate(4 256)">
<title>G</title><style>.edge>path:hover{stroke-width:8}</style>
<polygon fill="white" stroke="transparent" points="-4,4 -4,-256 449.5,-256 449.5,4 -4,4"/>
<!-- macedon -->
<g id="node1" class="node">
<title>macedon</title><style>.edge>path:hover{stroke-width:8}</style>
<polygon fill="#3583a1" stroke="black" points="297,-36 294,-40 273,-40 270,-36 241,-36 241,0 297,0 297,-36"/>
<text text-anchor="middle" x="269" y="-15.5" font-family="Helvetica,sans-Serif" font-size="10.00" fill="#ffffff">macedon</text>
</g>
<!-- certifi -->
<g id="node2" class="node">
<title>certifi</title><style>.edge>path:hover{stroke-width:8}</style>
<polygon fill="#c04040" stroke="black" points="166,-180 163,-184 142,-184 139,-180 112,-180 112,-144 166,-144 166,-180"/>
<text text-anchor="middle" x="139" y="-159.5" font-family="Helvetica,sans-Serif" font-size="10.00" fill="#ffffff">certifi</text>
</g>
<!-- requests -->
<g id="node9" class="node">
<title>requests</title><style>.edge>path:hover{stroke-width:8}</style>
<polygon fill="#583399" stroke="black" points="333,-108 330,-112 309,-112 306,-108 279,-108 279,-72 333,-72 333,-108"/>
<text text-anchor="middle" x="306" y="-87.5" font-family="Helvetica,sans-Serif" font-size="10.00" fill="#ffffff">requests</text>
</g>
<!-- certifi&#45;&gt;requests -->
<g id="edge1" class="edge">
<title>certifi&#45;&gt;requests</title><style>.edge>path:hover{stroke-width:8}</style>
<path fill="none" stroke="black" d="M166.02,-147.96C169.04,-146.59 172.07,-145.24 175,-144 213.88,-127.48 226.79,-125.81 269.67,-107.97"/>
<polygon fill="#c04040" stroke="black" points="271.12,-111.15 278.98,-104.04 268.4,-104.7 271.12,-111.15"/>
</g>
<!-- charsetnormalizer -->
<g id="node3" class="node">
<title>charsetnormalizer</title><style>.edge>path:hover{stroke-width:8}</style>
<polygon fill="#c08540" stroke="black" points="278,-180 275,-184 254,-184 251,-180 184,-180 184,-144 278,-144 278,-180"/>
<text text-anchor="middle" x="231" y="-159.5" font-family="Helvetica,sans-Serif" font-size="10.00" fill="#000000">charsetnormalizer</text>
</g>
<!-- charsetnormalizer&#45;&gt;requests -->
<g id="edge2" class="edge">
<title>charsetnormalizer&#45;&gt;requests</title><style>.edge>path:hover{stroke-width:8}</style>
<path fill="none" stroke="black" d="M249.54,-143.7C258.8,-135.05 270.16,-124.45 280.26,-115.03"/>
<polygon fill="#c08540" stroke="black" points="282.75,-117.49 287.67,-108.1 277.98,-112.37 282.75,-117.49"/>
</g>
<!-- click -->
<g id="node4" class="node">
<title>click</title><style>.edge>path:hover{stroke-width:8}</style>
<polygon fill="#adb83d" stroke="black" points="131,-108 128,-112 107,-112 104,-108 77,-108 77,-72 131,-72 131,-108"/>
<text text-anchor="middle" x="104" y="-87.5" font-family="Helvetica,sans-Serif" font-size="10.00" fill="#000000">click</text>
</g>
<!-- click&#45;&gt;macedon -->
<g id="edge3" class="edge">
<title>click&#45;&gt;macedon</title><style>.edge>path:hover{stroke-width:8}</style>
<path fill="none" stroke="black" d="M131.25,-77.44C158.58,-65.84 200.9,-47.89 231.42,-34.94"/>
<polygon fill="#adb83d" stroke="black" points="233.05,-38.06 240.88,-30.93 230.31,-31.61 233.05,-38.06"/>
</g>
<!-- cryptography -->
<g id="node5" class="node">
<title>cryptography</title><style>.edge>path:hover{stroke-width:8}</style>
<polygon fill="#6bcc33" stroke="black" points="445.5,-252 442.5,-256 421.5,-256 418.5,-252 372.5,-252 372.5,-216 445.5,-216 445.5,-252"/>
<text text-anchor="middle" x="409" y="-231.5" font-family="Helvetica,sans-Serif" font-size="10.00" fill="#000000">cryptography</text>
</g>
<!-- cryptography&#45;&gt;requests -->
<g id="edge4" class="edge">
<title>cryptography&#45;&gt;requests</title><style>.edge>path:hover{stroke-width:8}</style>
<path fill="none" stroke="black" d="M410.92,-215.72C412.15,-196.56 411.37,-165.52 397,-144 384.23,-124.88 362.05,-111.75 342.78,-103.35"/>
<polygon fill="#6bcc33" stroke="black" points="343.91,-100.03 333.33,-99.49 341.26,-106.51 343.91,-100.03"/>
</g>
<!-- urllib3 -->
<g id="node10" class="node">
<title>urllib3</title><style>.edge>path:hover{stroke-width:8}</style>
<polygon fill="#af2fbc" stroke="black" points="388,-180 385,-184 364,-184 361,-180 334,-180 334,-144 388,-144 388,-180"/>
<text text-anchor="middle" x="361" y="-159.5" font-family="Helvetica,sans-Serif" font-size="10.00" fill="#ffffff">urllib3</text>
</g>
<!-- cryptography&#45;&gt;urllib3 -->
<g id="edge5" class="edge">
<title>cryptography&#45;&gt;urllib3</title><style>.edge>path:hover{stroke-width:8}</style>
<path fill="none" stroke="black" d="M397.13,-215.7C391.5,-207.47 384.65,-197.48 378.43,-188.42"/>
<polygon fill="#6bcc33" stroke="black" points="381.27,-186.37 372.73,-180.1 375.5,-190.33 381.27,-186.37"/>
</g>
<!-- idna -->
<g id="node6" class="node">
<title>idna</title><style>.edge>path:hover{stroke-width:8}</style>
<polygon fill="#33cc4f" stroke="black" points="340,-252 337,-256 316,-256 313,-252 286,-252 286,-216 340,-216 340,-252"/>
<text text-anchor="middle" x="313" y="-231.5" font-family="Helvetica,sans-Serif" font-size="10.00" fill="#000000">idna</text>
</g>
<!-- idna&#45;&gt;requests -->
<g id="edge6" class="edge">
<title>idna&#45;&gt;requests</title><style>.edge>path:hover{stroke-width:8}</style>
<path fill="none" stroke="black" d="M312.16,-215.87C310.96,-191.67 308.77,-147.21 307.35,-118.39"/>
<polygon fill="#33cc4f" stroke="black" points="310.84,-118 306.85,-108.19 303.84,-118.35 310.84,-118"/>
</g>
<!-- idna&#45;&gt;urllib3 -->
<g id="edge7" class="edge">
<title>idna&#45;&gt;urllib3</title><style>.edge>path:hover{stroke-width:8}</style>
<path fill="none" stroke="black" d="M324.87,-215.7C330.5,-207.47 337.35,-197.48 343.57,-188.42"/>
<polygon fill="#33cc4f" stroke="black" points="346.5,-190.33 349.27,-180.1 340.73,-186.37 346.5,-190.33"/>
</g>
<!-- importlibmetadata -->
<g id="node7" class="node">
<title>importlibmetadata</title><style>.edge>path:hover{stroke-width:8}</style>
<polygon fill="#3db896" stroke="black" points="94,-180 91,-184 70,-184 67,-180 0,-180 0,-144 94,-144 94,-180"/>
<text text-anchor="middle" x="47" y="-159.5" font-family="Helvetica,sans-Serif" font-size="10.00" fill="#000000">importlibmetadata</text>
</g>
<!-- importlibmetadata&#45;&gt;click -->
<g id="edge8" class="edge">
<title>importlibmetadata&#45;&gt;click</title><style>.edge>path:hover{stroke-width:8}</style>
<path fill="none" stroke="black" d="M61.09,-143.7C67.92,-135.3 76.26,-125.07 83.76,-115.86"/>
<polygon fill="#3db896" stroke="black" points="86.47,-118.07 90.07,-108.1 81.04,-113.65 86.47,-118.07"/>
</g>
<!-- pytermor -->
<g id="node8" class="node">
<title>pytermor</title><style>.edge>path:hover{stroke-width:8}</style>
<polygon fill="#4057c0" stroke="black" points="260.5,-108 257.5,-112 236.5,-112 233.5,-108 205.5,-108 205.5,-72 260.5,-72 260.5,-108"/>
<text text-anchor="middle" x="233" y="-87.5" font-family="Helvetica,sans-Serif" font-size="10.00" fill="#ffffff">pytermor</text>
</g>
<!-- pytermor&#45;&gt;macedon -->
<g id="edge9" class="edge">
<title>pytermor&#45;&gt;macedon</title><style>.edge>path:hover{stroke-width:8}</style>
<path fill="none" stroke="black" d="M241.9,-71.7C246,-63.73 250.95,-54.1 255.49,-45.26"/>
<polygon fill="#4057c0" stroke="black" points="258.74,-46.6 260.2,-36.1 252.52,-43.4 258.74,-46.6"/>
</g>
<!-- requests&#45;&gt;macedon -->
<g id="edge10" class="edge">
<title>requests&#45;&gt;macedon</title><style>.edge>path:hover{stroke-width:8}</style>
<path fill="none" stroke="black" d="M296.85,-71.7C292.6,-63.64 287.44,-53.89 282.73,-44.98"/>
<polygon fill="#583399" stroke="black" points="285.81,-43.31 278.04,-36.1 279.62,-46.58 285.81,-43.31"/>
</g>
<!-- urllib3&#45;&gt;macedon -->
<g id="edge11" class="edge">
<title>urllib3&#45;&gt;macedon</title><style>.edge>path:hover{stroke-width:8}</style>
<path fill="none" stroke="black" d="M360.91,-143.89C360.04,-124.88 356.3,-93.99 342,-72 333.04,-58.21 319.14,-46.82 305.87,-38.18"/>
<polygon fill="#af2fbc" stroke="black" points="307.65,-35.16 297.3,-32.9 303.98,-41.12 307.65,-35.16"/>
</g>
<!-- urllib3&#45;&gt;requests -->
<g id="edge12" class="edge">
<title>urllib3&#45;&gt;requests</title><style>.edge>path:hover{stroke-width:8}</style>
<path fill="none" stroke="black" d="M347.4,-143.7C340.88,-135.39 332.93,-125.28 325.75,-116.14"/>
<polygon fill="#af2fbc" stroke="black" points="328.37,-113.81 319.44,-108.1 322.87,-118.13 328.37,-113.81"/>
</g>
<!-- zipp -->
<g id="node11" class="node">
<title>zipp</title><style>.edge>path:hover{stroke-width:8}</style>
<polygon fill="#c04085" stroke="black" points="74,-252 71,-256 50,-256 47,-252 20,-252 20,-216 74,-216 74,-252"/>
<text text-anchor="middle" x="47" y="-231.5" font-family="Helvetica,sans-Serif" font-size="10.00" fill="#ffffff">zipp</text>
</g>
<!-- zipp&#45;&gt;importlibmetadata -->
<g id="edge13" class="edge">
<title>zipp&#45;&gt;importlibmetadata</title><style>.edge>path:hover{stroke-width:8}</style>
<path fill="none" stroke="black" d="M47,-215.7C47,-207.98 47,-198.71 47,-190.11"/>
<polygon fill="#c04085" stroke="black" points="50.5,-190.1 47,-180.1 43.5,-190.1 50.5,-190.1"/>
</g>
</g>
</svg>
