<?xml version="1.0" encoding="UTF-8" standalone="no"?>
<!DOCTYPE svg PUBLIC "-//W3C//DTD SVG 1.1//EN"
 "http://www.w3.org/Graphics/SVG/1.1/DTD/svg11.dtd">
<!-- Generated by graphviz version 2.43.0 (0)
 -->
<!-- Title: G Pages: 1 -->
<svg width="273pt" height="408pt"
 viewBox="0.00 0.00 272.50 408.00" xmlns="http://www.w3.org/2000/svg" xmlns:xlink="http://www.w3.org/1999/xlink">
<g id="graph0" class="graph" transform="scale(1 1) rotate(0) translate(4 404)">
<title>G</title><style>.edge>path:hover{stroke-width:8}</style>
<polygon fill="white" stroke="transparent" points="-4,4 -4,-404 268.5,-404 268.5,4 -4,4"/>
<!-- macedon -->
<g id="node1" class="node">
<title>macedon</title><style>.edge>path:hover{stroke-width:8}</style>
<polygon fill="#3db883" stroke="black" points="201,-36 198,-40 177,-40 174,-36 145,-36 145,0 201,0 201,-36"/>
<text text-anchor="middle" x="173" y="-15.5" font-family="Helvetica,sans-Serif" font-size="10.00" fill="#000000">macedon</text>
</g>
<!-- charsetnormalizer -->
<g id="node2" class="node">
<title>charsetnormalizer</title><style>.edge>path:hover{stroke-width:8}</style>
<polygon fill="#c24747" stroke="black" points="145,-254 142,-258 121,-258 118,-254 51,-254 51,-218 145,-218 145,-254"/>
<text text-anchor="middle" x="98" y="-233.5" font-family="Helvetica,sans-Serif" font-size="10.00" fill="#ffffff">charsetnormalizer</text>
</g>
<!-- requests -->
<g id="node6" class="node">
<title>requests</title><style>.edge>path:hover{stroke-width:8}</style>
<polygon fill="#320f8a" stroke="black" points="200,-145 197,-149 176,-149 173,-145 146,-145 146,-109 200,-109 200,-145"/>
<text text-anchor="middle" x="173" y="-124.5" font-family="Helvetica,sans-Serif" font-size="10.00" fill="#ffffff">requests</text>
</g>
<!-- charsetnormalizer&#45;&gt;requests -->
<g id="edge1" class="edge">
<title>charsetnormalizer&#45;&gt;requests</title><style>.edge>path:hover{stroke-width:8}</style>
<path fill="none" stroke="black" d="M140.72,-217.88C154.78,-209.55 168.08,-197.83 173,-182"/>
<path fill="none" stroke="black" d="M173,-181C175.53,-172.84 176.23,-163.64 176.09,-155.21"/>
<polygon fill="#c24747" stroke="black" points="179.58,-154.89 175.54,-145.09 172.59,-155.27 179.58,-154.89"/>
</g>
<!-- click -->
<g id="node3" class="node">
<title>click</title><style>.edge>path:hover{stroke-width:8}</style>
<polygon fill="#8b7c22" stroke="black" points="54,-145 51,-149 30,-149 27,-145 0,-145 0,-109 54,-109 54,-145"/>
<text text-anchor="middle" x="27" y="-124.5" font-family="Helvetica,sans-Serif" font-size="10.00" fill="#ffffff">click</text>
</g>
<!-- click&#45;&gt;macedon -->
<g id="edge2" class="edge">
<title>click&#45;&gt;macedon</title><style>.edge>path:hover{stroke-width:8}</style>
<path fill="none" stroke="black" d="M54.36,-112.65C57.26,-111.36 60.17,-110.12 63,-109 110.8,-89.98 156.7,-121.79 173,-73"/>
<path fill="none" stroke="black" d="M173,-72C175.71,-63.9 176.45,-54.71 176.3,-46.28"/>
<polygon fill="#8b7c22" stroke="black" points="179.79,-45.93 175.71,-36.15 172.8,-46.34 179.79,-45.93"/>
</g>
<!-- cryptography -->
<g id="node4" class="node">
<title>cryptography</title><style>.edge>path:hover{stroke-width:8}</style>
<polygon fill="#5fcc33" stroke="black" points="264.5,-400 261.5,-404 240.5,-404 237.5,-400 191.5,-400 191.5,-364 264.5,-364 264.5,-400"/>
<text text-anchor="middle" x="228" y="-379.5" font-family="Helvetica,sans-Serif" font-size="10.00" fill="#000000">cryptography</text>
</g>
<!-- cryptography&#45;&gt;requests -->
<g id="edge3" class="edge">
<title>cryptography&#45;&gt;requests</title><style>.edge>path:hover{stroke-width:8}</style>
<path fill="none" stroke="black" d="M230.33,-363.81C232.28,-345.49 233.9,-315.78 228,-291"/>
<path fill="none" stroke="black" d="M228,-290C221.58,-268.3 203.28,-273.62 192,-254 175.51,-225.31 163.18,-213.6 173,-182"/>
</g>
<!-- urllib3 -->
<g id="node7" class="node">
<title>urllib3</title><style>.edge>path:hover{stroke-width:8}</style>
<polygon fill="#950380" stroke="black" points="255,-254 252,-258 231,-258 228,-254 201,-254 201,-218 255,-218 255,-254"/>
<text text-anchor="middle" x="228" y="-233.5" font-family="Helvetica,sans-Serif" font-size="10.00" fill="#ffffff">urllib3</text>
</g>
<!-- cryptography&#45;&gt;urllib3 -->
<g id="edge4" class="edge">
<title>cryptography&#45;&gt;urllib3</title><style>.edge>path:hover{stroke-width:8}</style>
<path fill="none" stroke="black" d="M228,-290C226.07,-281.91 225.51,-272.92 225.58,-264.69"/>
<polygon fill="#5fcc33" stroke="black" points="229.09,-264.55 225.99,-254.42 222.1,-264.28 229.09,-264.55"/>
</g>
<!-- pytermor -->
<g id="node5" class="node">
<title>pytermor</title><style>.edge>path:hover{stroke-width:8}</style>
<polygon fill="#265273" stroke="black" points="127.5,-145 124.5,-149 103.5,-149 100.5,-145 72.5,-145 72.5,-109 127.5,-109 127.5,-145"/>
<text text-anchor="middle" x="100" y="-124.5" font-family="Helvetica,sans-Serif" font-size="10.00" fill="#ffffff">pytermor</text>
</g>
<!-- pytermor&#45;&gt;macedon -->
<g id="edge5" class="edge">
<title>pytermor&#45;&gt;macedon</title><style>.edge>path:hover{stroke-width:8}</style>
<path fill="none" stroke="black" d="M127.64,-110.58C146.78,-99.13 169.43,-83.7 173,-73"/>
</g>
<!-- requests&#45;&gt;macedon -->
<g id="edge6" class="edge">
<title>requests&#45;&gt;macedon</title><style>.edge>path:hover{stroke-width:8}</style>
<path fill="none" stroke="black" d="M170.29,-108.85C169.27,-98.25 169.15,-84.52 173,-73"/>
</g>
<!-- urllib3&#45;&gt;macedon -->
<g id="edge7" class="edge">
<title>urllib3&#45;&gt;macedon</title><style>.edge>path:hover{stroke-width:8}</style>
<path fill="none" stroke="black" d="M228,-181C220.34,-148.8 225.49,-137.69 209,-109 197.72,-89.38 165.83,-94.46 173,-73"/>
</g>
<!-- urllib3&#45;&gt;requests -->
<g id="edge8" class="edge">
<title>urllib3&#45;&gt;requests</title><style>.edge>path:hover{stroke-width:8}</style>
<path fill="none" stroke="black" d="M230.01,-217.58C230.73,-207.12 230.77,-193.64 228,-182"/>
<path fill="none" stroke="black" d="M228,-181C225.15,-169.01 217.11,-158.73 208.03,-150.52"/>
<polygon fill="#950380" stroke="black" points="210.2,-147.76 200.26,-144.1 205.74,-153.16 210.2,-147.76"/>
</g>
</g>
</svg>
