<?xml version="1.0" encoding="UTF-8" standalone="no"?>
<!DOCTYPE svg PUBLIC "-//W3C//DTD SVG 1.1//EN"
 "http://www.w3.org/Graphics/SVG/1.1/DTD/svg11.dtd">
<!-- Generated by graphviz version 2.43.0 (0)
 -->
<!-- Title: G Pages: 1 -->
<svg width="240pt" height="476pt"
 viewBox="0.00 0.00 240.46 476.00" xmlns="http://www.w3.org/2000/svg" xmlns:xlink="http://www.w3.org/1999/xlink">
<g id="graph0" class="graph" transform="scale(1 1) rotate(0) translate(4 472)">
<title>G</title><style>.edge>path:hover{stroke-width:8}</style>
<polygon fill="white" stroke="transparent" points="-4,4 -4,-472 236.46,-472 236.46,4 -4,4"/>
<!-- macedon -->
<g id="node1" class="node">
<title>macedon</title><style>.edge>path:hover{stroke-width:8}</style>
<ellipse fill="#49ac49" stroke="black" cx="32.97" cy="-18" rx="32.93" ry="18"/>
<text text-anchor="middle" x="32.97" y="-15.5" font-family="Helvetica,sans-Serif" font-size="10.00" fill="#000000">macedon</text>
</g>
<!-- macedon___main__ -->
<g id="node2" class="node">
<title>macedon___main__</title><style>.edge>path:hover{stroke-width:8}</style>
<ellipse fill="#59a659" stroke="black" cx="118.97" cy="-18" rx="34.96" ry="18"/>
<text text-anchor="middle" x="118.97" y="-15.5" font-family="Helvetica,sans-Serif" font-size="10.00" fill="#000000">__main__</text>
</g>
<!-- macedon__version -->
<g id="node3" class="node">
<title>macedon__version</title><style>.edge>path:hover{stroke-width:8}</style>
<ellipse fill="#53b653" stroke="black" cx="32.97" cy="-90" rx="31.4" ry="18"/>
<text text-anchor="middle" x="32.97" y="-87.5" font-family="Helvetica,sans-Serif" font-size="10.00" fill="#000000">_version</text>
</g>
<!-- macedon__version&#45;&gt;macedon -->
<g id="edge1" class="edge">
<title>macedon__version&#45;&gt;macedon</title><style>.edge>path:hover{stroke-width:8}</style>
<path fill="none" stroke="black" d="M32.97,-71.7C32.97,-63.98 32.97,-54.71 32.97,-46.11"/>
<polygon fill="#53b653" stroke="black" points="36.47,-46.1 32.97,-36.1 29.47,-46.1 36.47,-46.1"/>
</g>
<!-- macedon_entrypoint -->
<g id="node4" class="node">
<title>macedon_entrypoint</title><style>.edge>path:hover{stroke-width:8}</style>
<ellipse fill="#3ab03a" stroke="black" cx="117.97" cy="-90" rx="34.96" ry="18"/>
<text text-anchor="middle" x="117.97" y="-87.5" font-family="Helvetica,sans-Serif" font-size="10.00" fill="#ffffff">entrypoint</text>
</g>
<!-- macedon_entrypoint&#45;&gt;macedon -->
<g id="edge2" class="edge">
<title>macedon_entrypoint&#45;&gt;macedon</title><style>.edge>path:hover{stroke-width:8}</style>
<path fill="none" stroke="black" d="M99.94,-74.15C87.83,-64.18 71.71,-50.9 58.31,-39.87"/>
<polygon fill="#3ab03a" stroke="black" points="60.33,-37 50.38,-33.35 55.88,-42.4 60.33,-37"/>
</g>
<!-- macedon_entrypoint&#45;&gt;macedon___main__ -->
<g id="edge3" class="edge">
<title>macedon_entrypoint&#45;&gt;macedon___main__</title><style>.edge>path:hover{stroke-width:8}</style>
<path fill="none" stroke="black" d="M118.21,-71.7C118.32,-63.98 118.45,-54.71 118.58,-46.11"/>
<polygon fill="#3ab03a" stroke="black" points="122.08,-46.15 118.72,-36.1 115.08,-46.05 122.08,-46.15"/>
</g>
<!-- macedon_log -->
<g id="node5" class="node">
<title>macedon_log</title><style>.edge>path:hover{stroke-width:8}</style>
<ellipse fill="#24d024" stroke="black" cx="137.97" cy="-378" rx="27" ry="18"/>
<text text-anchor="middle" x="137.97" y="-375.5" font-family="Helvetica,sans-Serif" font-size="10.00" fill="#000000">log</text>
</g>
<!-- macedon_log&#45;&gt;macedon_entrypoint -->
<g id="edge4" class="edge">
<title>macedon_log&#45;&gt;macedon_entrypoint</title><style>.edge>path:hover{stroke-width:8}</style>
<path fill="none" stroke="black" d="M82.97,-233C87.63,-202.24 72.14,-192.17 82.97,-163"/>
</g>
<!-- macedon_printer -->
<g id="node7" class="node">
<title>macedon_printer</title><style>.edge>path:hover{stroke-width:8}</style>
<ellipse fill="#40c040" stroke="black" cx="137.97" cy="-306" rx="27" ry="18"/>
<text text-anchor="middle" x="137.97" y="-303.5" font-family="Helvetica,sans-Serif" font-size="10.00" fill="#000000">printer</text>
</g>
<!-- macedon_log&#45;&gt;macedon_printer -->
<g id="edge5" class="edge">
<title>macedon_log&#45;&gt;macedon_printer</title><style>.edge>path:hover{stroke-width:8}</style>
<path fill="none" stroke="black" d="M137.97,-359.7C137.97,-351.98 137.97,-342.71 137.97,-334.11"/>
<polygon fill="#24d024" stroke="black" points="141.47,-334.1 137.97,-324.1 134.47,-334.1 141.47,-334.1"/>
</g>
<!-- macedon_synchronizer -->
<g id="node8" class="node">
<title>macedon_synchronizer</title><style>.edge>path:hover{stroke-width:8}</style>
<ellipse fill="#439d43" stroke="black" cx="152.97" cy="-162" rx="42.27" ry="18"/>
<text text-anchor="middle" x="152.97" y="-159.5" font-family="Helvetica,sans-Serif" font-size="10.00" fill="#ffffff">synchronizer</text>
</g>
<!-- macedon_log&#45;&gt;macedon_synchronizer -->
<g id="edge6" class="edge">
<title>macedon_log&#45;&gt;macedon_synchronizer</title><style>.edge>path:hover{stroke-width:8}</style>
<path fill="none" stroke="black" d="M125.4,-361.7C105.97,-336.17 71.93,-282.92 82.97,-235"/>
<path fill="none" stroke="black" d="M82.97,-233C86.19,-211.73 103,-194.52 119.33,-182.49"/>
<polygon fill="#24d024" stroke="black" points="121.52,-185.24 127.76,-176.68 117.54,-179.48 121.52,-185.24"/>
</g>
<!-- macedon_worker -->
<g id="node9" class="node">
<title>macedon_worker</title><style>.edge>path:hover{stroke-width:8}</style>
<ellipse fill="#46a446" stroke="black" cx="175.97" cy="-234" rx="27.16" ry="18"/>
<text text-anchor="middle" x="175.97" y="-231.5" font-family="Helvetica,sans-Serif" font-size="10.00" fill="#ffffff">worker</text>
</g>
<!-- macedon_log&#45;&gt;macedon_worker -->
<g id="edge7" class="edge">
<title>macedon_log&#45;&gt;macedon_worker</title><style>.edge>path:hover{stroke-width:8}</style>
<path fill="none" stroke="black" d="M151.61,-362.03C159.77,-352.05 169.42,-338.2 173.97,-324 180.35,-304.04 180.53,-280.25 179.29,-262.29"/>
<polygon fill="#24d024" stroke="black" points="182.77,-261.86 178.4,-252.2 175.79,-262.47 182.77,-261.86"/>
</g>
<!-- macedon_options -->
<g id="node6" class="node">
<title>macedon_options</title><style>.edge>path:hover{stroke-width:8}</style>
<ellipse fill="#2fdb2f" stroke="black" cx="137.97" cy="-450" rx="28.01" ry="18"/>
<text text-anchor="middle" x="137.97" y="-447.5" font-family="Helvetica,sans-Serif" font-size="10.00" fill="#000000">options</text>
</g>
<!-- macedon_options&#45;&gt;macedon_entrypoint -->
<g id="edge8" class="edge">
<title>macedon_options&#45;&gt;macedon_entrypoint</title><style>.edge>path:hover{stroke-width:8}</style>
<path fill="none" stroke="black" d="M125.44,-433.6C117.72,-423.45 108.14,-409.56 101.97,-396 58.9,-301.44 46.83,-260.41 82.97,-163"/>
<path fill="none" stroke="black" d="M82.97,-161C87.6,-145.38 95.57,-129.04 102.73,-116.08"/>
<polygon fill="#2fdb2f" stroke="black" points="105.83,-117.71 107.75,-107.29 99.75,-114.24 105.83,-117.71"/>
</g>
<!-- macedon_options&#45;&gt;macedon_log -->
<g id="edge9" class="edge">
<title>macedon_options&#45;&gt;macedon_log</title><style>.edge>path:hover{stroke-width:8}</style>
<path fill="none" stroke="black" d="M137.97,-431.7C137.97,-423.98 137.97,-414.71 137.97,-406.11"/>
<polygon fill="#2fdb2f" stroke="black" points="141.47,-406.1 137.97,-396.1 134.47,-406.1 141.47,-406.1"/>
</g>
<!-- macedon_options&#45;&gt;macedon_synchronizer -->
<g id="edge10" class="edge">
<title>macedon_options&#45;&gt;macedon_synchronizer</title><style>.edge>path:hover{stroke-width:8}</style>
<path fill="none" stroke="black" d="M230.97,-305C229.58,-264.58 232.22,-251.01 211.97,-216 204.77,-203.56 193.63,-192.45 182.96,-183.66"/>
<polygon fill="#2fdb2f" stroke="black" points="185,-180.81 174.97,-177.4 180.68,-186.32 185,-180.81"/>
</g>
<!-- macedon_options&#45;&gt;macedon_worker -->
<g id="edge11" class="edge">
<title>macedon_options&#45;&gt;macedon_worker</title><style>.edge>path:hover{stroke-width:8}</style>
<path fill="none" stroke="black" d="M156.29,-435.8C186.15,-412.53 241.02,-361.48 230.97,-307"/>
<path fill="none" stroke="black" d="M230.97,-305C230.28,-284.86 216.02,-267.07 202.19,-254.47"/>
<polygon fill="#2fdb2f" stroke="black" points="204.09,-251.49 194.21,-247.67 199.55,-256.82 204.09,-251.49"/>
</g>
<!-- macedon_printer&#45;&gt;macedon_synchronizer -->
<g id="edge12" class="edge">
<title>macedon_printer&#45;&gt;macedon_synchronizer</title><style>.edge>path:hover{stroke-width:8}</style>
<path fill="none" stroke="black" d="M137.25,-287.85C136.75,-269.87 136.68,-240.82 139.97,-216 141.1,-207.41 143.08,-198.2 145.16,-189.91"/>
<polygon fill="#40c040" stroke="black" points="148.61,-190.57 147.79,-180.01 141.84,-188.77 148.61,-190.57"/>
</g>
<!-- macedon_printer&#45;&gt;macedon_worker -->
<g id="edge13" class="edge">
<title>macedon_printer&#45;&gt;macedon_worker</title><style>.edge>path:hover{stroke-width:8}</style>
<path fill="none" stroke="black" d="M146.78,-288.76C151.38,-280.28 157.12,-269.71 162.29,-260.2"/>
<polygon fill="#40c040" stroke="black" points="165.5,-261.61 167.2,-251.15 159.35,-258.27 165.5,-261.61"/>
</g>
<!-- macedon_synchronizer&#45;&gt;macedon_entrypoint -->
<g id="edge14" class="edge">
<title>macedon_synchronizer&#45;&gt;macedon_entrypoint</title><style>.edge>path:hover{stroke-width:8}</style>
<path fill="none" stroke="black" d="M144.49,-144.05C140.41,-135.89 135.42,-125.91 130.88,-116.82"/>
<polygon fill="#439d43" stroke="black" points="133.96,-115.17 126.36,-107.79 127.7,-118.3 133.96,-115.17"/>
</g>
<!-- macedon_worker&#45;&gt;macedon_synchronizer -->
<g id="edge15" class="edge">
<title>macedon_worker&#45;&gt;macedon_synchronizer</title><style>.edge>path:hover{stroke-width:8}</style>
<path fill="none" stroke="black" d="M170.4,-216.05C167.81,-208.18 164.67,-198.62 161.77,-189.79"/>
<polygon fill="#46a446" stroke="black" points="165.09,-188.68 158.64,-180.28 158.44,-190.87 165.09,-188.68"/>
</g>
</g>
</svg>
